<?xml version="1.0" encoding="UTF-8"?>
<svg width="209px" height="49px" viewBox="0 0 209 49" version="1.1" xmlns="http://www.w3.org/2000/svg" xmlns:xlink="http://www.w3.org/1999/xlink">
    <!-- Generator: Sketch 53 (72520) - https://sketchapp.com -->
    <title>settle_ecom_button_purple</title>
    <desc>Created with Sketch.</desc>
    <g id="ECom---flow" stroke="none" stroke-width="1" fill="none" fill-rule="evenodd">
        <g id="Button-Examples" transform="translate(-499.000000, -101.000000)">
            <g id="settle_ecom_button_purple" transform="translate(499.000000, 101.000000)">
                <rect id="Rectangle-47" fill="#4C596E" x="0" y="0" width="209" height="49" rx="4"></rect>
                <text id="PayWithSettle" font-family="SourceSansPro-SemiBold, Source Sans Pro" font-size="16" font-weight="500" fill="#FFFFFF">
                    <tspan x="35.724" y="30">Pay with</tspan>
                </text>
                <path d="M136.918031,23.6692051 C135.887097,23.6692051 135.139624,24.2246549 134.875109,25.3298429 L138.671321,25.3298429 C138.53727,24.2389338 137.936621,23.6692051 136.918031,23.6692051 Z M132.287943,25.47406 C132.668569,23.0880533 134.693694,21.6830081 136.830768,21.6830081 C139.561888,21.6830081 141,23.5164208 141,25.9109948 C141,26.3893384 140.925798,26.8633984 140.889917,27.0818658 L134.841668,27.0818658 C135.100442,28.355545 136.039089,28.9281295 137.491123,28.9281295 C138.115022,28.9281295 138.671895,28.7967634 139.257474,28.552594 L140.643056,29.8891004 C139.631498,30.5345074 138.318683,30.9200381 137.132312,30.9200381 C135.17694,30.9200381 133.530001,30.0690148 132.734877,28.5326035 C132.223644,29.9390766 130.727262,31 128.429154,31 C126.856991,31 125.23359,30.4274155 124,29.329367 L125.510878,27.5302237 C126.390538,28.2470252 127.475723,28.7382199 128.603536,28.7382199 C129.720871,28.7382199 130.236984,28.3069967 130.236984,27.7415516 C130.236984,26.907663 129.545484,26.7063303 128.444511,26.2479772 L126.928896,25.6039981 C125.639619,25.1170871 124.463296,24.1332699 124.463296,22.4497858 C124.463296,20.5321276 126.198646,19 128.726536,19 C130.125896,19 131.540183,19.5226083 132.590205,20.5149929 L131.263755,22.1670633 C130.444663,21.5816278 129.719436,21.263208 128.582725,21.263208 C127.715552,21.263208 127.12696,21.6201809 127.12696,22.2955735 C127.12696,22.9923846 127.90687,23.2465493 129.022483,23.6634936 L130.445955,24.263208 C131.225004,24.5544979 131.855936,24.9443122 132.287943,25.47406 Z M171,29 C171,27.8911704 171.817384,27 173.000138,27 C174.182892,27 175,27.8911704 175,29 C175,30.1266256 174.182892,31 173.000138,31 C171.817384,31 171,30.1266256 171,29 Z M165.800428,23.5836042 C164.739793,23.5836042 163.970637,24.1455399 163.698649,25.2636331 L167.604231,25.2636331 C167.46617,24.1599856 166.848217,23.5836042 165.800428,23.5836042 Z M160.970205,26.2416035 C160.970205,23.3250271 163.269995,21.5742145 165.710651,21.5742145 C168.520456,21.5742145 170,23.4290358 170,25.851571 C170,26.3355002 169.923513,26.8150957 169.886745,27.0361141 L163.664244,27.0361141 C163.930326,28.3246659 164.896164,28.9039364 166.389883,28.9039364 C167.031905,28.9039364 167.604822,28.7710365 168.207271,28.5240159 L169.632624,29.8761286 C168.592071,30.5290719 167.241285,30.9191044 166.020883,30.9191044 C164.930569,30.9191044 163.934017,30.664861 163.118939,30.18671 L162.205963,30.5175153 C162.202567,30.5189599 162.199319,30.5204045 162.19607,30.521849 L162.189278,30.5232936 C161.252824,30.8223185 160.612722,31 159.487117,31 C157.192642,31 156,29.5597689 156,27.2990249 L156.001034,20.271217 L156.001034,19 L158.703785,19 L158.703785,27.4059227 C158.703785,28.5081257 159.428201,28.8663778 160.188645,28.8663778 C160.594117,28.8663778 161.022328,28.7840376 161.546518,28.5962441 C161.177961,27.936078 160.970205,27.1473456 160.970205,26.2416035 Z M144.753132,27.0126582 C144.753132,28.382668 145.346616,28.8997079 146.693403,28.8997079 C146.892727,28.8997079 147.083672,28.8880234 147.267433,28.8661149 L149,30.5165531 C148.183697,30.7531646 147.218799,31 145.995767,31 C143.057228,31 142.013019,29.4109056 142.013019,27.0462512 L142.013019,26.2779942 L142,26.2779942 L142,19 L144.735474,19 L144.735474,19.0131451 L144.753132,19.0131451 L144.753132,21.8013632 L146.664372,21.8013632 L148.746954,23.929406 L144.753132,23.929406 L144.753132,27.0126582 Z M151.752982,27.0126582 C151.752982,28.382668 152.346616,28.8997079 153.693403,28.8997079 C153.892727,28.8997079 154.083522,28.8880234 154.267284,28.8661149 L156,30.5165531 C155.183697,30.7531646 154.218799,31 152.995618,31 C150.057078,31 149.012869,29.4109056 149.012869,27.0462512 L149.012869,26.2779942 L149,26.2779942 L149,19 L151.735324,19 L151.735324,19.0131451 L151.752982,19.0131451 L151.752982,21.8013632 L153.664222,21.8013632 L155.746954,23.929406 L151.752982,23.929406 L151.752982,27.0126582 Z" id="ic_splash_settle_wordmark" fill="#FFFFFE"></path>
                <path d="M112.817907,24.1 L107.689884,19.1761983 L107.679469,19.1866911 L107.116997,18.6460362 C105.914102,17.4938015 105.489103,15.7629642 106.034111,14.236697 C106.645132,12.5251885 108.040778,11.0520952 110.187642,9.85 L117.2,16.5950505 C115.722318,18.0021102 113.127543,20.8958328 112.817907,24.1 Z M116.276975,36.5238353 C115.508643,37.5645714 114.384487,38.4961968 112.928451,39.3 L105.8,32.5500582 C107.300585,31.1436196 109.934122,28.2523439 110.253704,25.05 L115.266839,29.7566031 L115.639522,30.110147 C117.444948,31.812653 117.719085,34.5699484 116.276975,36.5238353 Z M119.929396,17.720211 L121,16.8686765 L110.775119,7 L109.998592,7.38373189 C106.821102,8.95400735 104.753132,11.0341208 103.852045,13.5665124 C102.989793,15.9895165 103.652878,18.7279451 105.541502,20.5429491 L106.506721,21.4709116 C107.336262,22.3924254 107.695359,23.3937108 107.604558,24.5307355 C107.328366,27.9906118 103.112258,31.3964314 103.070604,31.4296298 L102,32.2813235 L112.224801,42.15 L113.001166,41.7663477 C115.173313,40.6929334 116.843513,39.3630875 117.965601,37.8134316 C120.087876,34.8826594 119.695181,30.7567455 117.052107,28.2161538 L116.492957,27.67877 C115.663738,26.7572562 115.304641,25.7559707 115.395442,24.6191053 C115.671714,21.1592289 119.887742,17.753489 119.929396,17.720211 L119.929396,17.720211 Z" id="ic_splash_settle_logo_symbol" fill="#FFFFFE"></path>
            </g>
        </g>
    </g>
</svg>