<?xml version="1.0" encoding="UTF-8"?>
<svg width="209px" height="49px" viewBox="0 0 209 49" version="1.1" xmlns="http://www.w3.org/2000/svg" xmlns:xlink="http://www.w3.org/1999/xlink">
    <!-- Generator: Sketch 53 (72520) - https://sketchapp.com -->
    <title>settle_ecom_button_red</title>
    <desc>Created with Sketch.</desc>
    <g id="ECom---flow" stroke="none" stroke-width="1" fill="none" fill-rule="evenodd">
        <g id="Button-Examples" transform="translate(-259.000000, -101.000000)">
            <g id="settle_ecom_button_red" transform="translate(259.000000, 101.000000)">
                <rect id="Rectangle-47" fill="#F35D5D" x="0" y="0" width="209" height="49" rx="4"></rect>
                <text id="PayWithSettle" font-family="SourceSansPro-SemiBold, Source Sans Pro" font-size="16" font-weight="500" fill="#FFFFFF">
                    <tspan x="36.0502247" y="30.0199008">Pay with</tspan>
                </text>
                <path d="M138.020866,23.6824706 C136.978722,23.6824706 136.22312,24.2375392 135.955729,25.3419688 L139.793222,25.3419688 C139.657713,24.2518083 139.050533,23.6824706 138.020866,23.6824706 Z M133.34043,25.4860869 C133.725195,23.1017175 135.772342,21.6976365 137.932655,21.6976365 C140.693474,21.6976365 142.147223,23.529791 142.147223,25.9227218 C142.147223,26.4007372 142.072215,26.8744719 142.035943,27.0927893 L135.921924,27.0927893 C136.183512,28.3655945 137.132367,28.937786 138.60019,28.937786 C139.230874,28.937786 139.793803,28.8065102 140.385749,28.5625083 L141.786397,29.8980976 C140.76384,30.5430616 139.436749,30.9283277 138.237478,30.9283277 C136.260842,30.9283277 134.595994,30.0778884 133.792224,28.5425315 C133.275432,29.9480395 131.762778,31.0082348 129.43968,31.0082348 C127.850421,31.0082348 126.209367,30.4360432 124.962363,29.3387482 L126.489671,27.5408396 C127.378895,28.2571492 128.475882,28.7480068 129.615958,28.7480068 C130.745443,28.7480068 131.267168,28.3170795 131.267168,27.7520225 C131.267168,26.9187061 130.56815,26.7175116 129.455204,26.2594729 L127.923108,25.6159358 C126.619812,25.1293589 125.430697,24.1462168 125.430697,22.4638881 C125.430697,20.5475458 127.184917,19.0164696 129.740296,19.0164696 C131.154873,19.0164696 132.584538,19.5387192 133.645979,20.5304228 L132.305105,22.1813596 C131.477106,21.5963258 130.743992,21.2781245 129.594921,21.2781245 C128.718318,21.2781245 128.123326,21.6348524 128.123326,22.3097816 C128.123326,23.0061145 128.911716,23.2601047 130.039461,23.6767629 L131.478412,24.2760658 C132.265932,24.5671558 132.903725,24.9567026 133.34043,25.4860869 Z M172.473448,29.0096073 C172.473448,27.9015386 173.299721,27.0109797 174.495336,27.0109797 C175.690952,27.0109797 176.516945,27.9015386 176.516945,29.0096073 C176.516945,30.1354597 175.690952,31.0082348 174.495336,31.0082348 C173.299721,31.0082348 172.473448,30.1354597 172.473448,29.0096073 Z M167.217335,23.5969284 C166.145167,23.5969284 165.367647,24.1584785 165.092701,25.2758044 L169.040753,25.2758044 C168.901191,24.1729142 168.276518,23.5969284 167.217335,23.5969284 Z M162.334587,26.2531036 C162.334587,23.3385287 164.659385,21.5889176 167.126582,21.5889176 C169.966941,21.5889176 171.462574,23.442466 171.462574,25.8633388 C171.462574,26.3469359 171.385255,26.8262023 171.348088,27.0470691 L165.057922,27.0470691 C165.326897,28.3347366 166.303238,28.9136096 167.8132,28.9136096 C168.462203,28.9136096 169.04135,28.7808009 169.650351,28.5339498 L171.091203,29.8851346 C170.039335,30.5376298 168.673861,30.9273947 167.440188,30.9273947 C166.338017,30.9273947 165.330629,30.6733257 164.506688,30.1955029 L163.583784,30.5260812 C163.580351,30.5275248 163.577067,30.5289684 163.573783,30.530412 L163.566917,30.5318555 C162.62028,30.8306753 161.973217,31.0082348 160.835372,31.0082348 C158.515947,31.0082348 157.310336,29.568992 157.310336,27.3097994 L157.311381,20.2868143 L157.311381,19.0164696 L160.043522,19.0164696 L160.043522,27.4166239 C160.043522,28.5180705 160.775815,28.8760767 161.544529,28.8760767 C161.95441,28.8760767 162.387277,28.793793 162.917167,28.6061285 C162.544603,27.9464154 162.334587,27.1582242 162.334587,26.2531036 Z M145.941167,27.0236293 C145.941167,28.3926989 146.541105,28.909384 147.902537,28.909384 C148.104029,28.909384 148.29705,28.8977075 148.48281,28.875814 L150.234217,30.5251196 C149.409038,30.7615687 148.433647,31.0082348 147.197315,31.0082348 C144.226822,31.0082348 143.171258,29.4202308 143.171258,27.0571992 L143.171258,26.2894694 L143.158098,26.2894694 L143.158098,19.0164696 L145.923317,19.0164696 L145.923317,19.0296057 L145.941167,19.0296057 L145.941167,21.8159104 L147.873191,21.8159104 L149.978419,23.9424929 L145.941167,23.9424929 L145.941167,27.0236293 Z M153.017135,27.0236293 C153.017135,28.3926989 153.617224,28.909384 154.978656,28.909384 C155.180148,28.909384 155.373018,28.8977075 155.558778,28.875814 L157.310336,30.5251196 C156.485157,30.7615687 155.509766,31.0082348 154.273283,31.0082348 C151.30279,31.0082348 150.247226,29.4202308 150.247226,27.0571992 L150.247226,26.2894694 L150.234217,26.2894694 L150.234217,19.0164696 L152.999285,19.0164696 L152.999285,19.0296057 L153.017135,19.0296057 L153.017135,21.8159104 L154.949159,21.8159104 L157.054538,23.9424929 L153.017135,23.9424929 L153.017135,27.0236293 Z" id="ic_splash_settle_wordmark" fill="#FFFFFE"></path>
                <path d="M114.541039,23.9298345 L109.413015,19.0623416 L109.4026,19.0727144 L108.840128,18.5382424 C107.637233,17.3991847 107.212235,15.6881413 107.757243,14.1793285 C108.368263,12.4873929 109.763909,11.031146 111.910773,9.84279794 L118.923131,16.5107118 C117.44545,17.9016803 114.850675,20.7623102 114.541039,23.9298345 Z M118.000107,36.2115904 C117.231775,37.2404246 116.107618,38.1613959 114.651583,38.9560068 L107.523131,32.2832575 C109.023716,30.8929031 111.657254,28.034692 111.976835,24.8689703 L116.989971,29.5217485 L117.362653,29.8712493 C119.168079,31.5542853 119.442216,34.2800482 118.000107,36.2115904 Z M121.652527,17.623005 L122.723131,16.7812087 L112.49825,7.02539063 L111.721723,7.40473414 C108.544234,8.95705188 106.476263,11.0133771 105.575177,13.5168082 C104.712924,15.9121028 105.376009,18.6192146 107.264633,20.4134622 L108.229853,21.3308124 C109.059393,22.2417877 109.418491,23.2316225 109.327689,24.3556441 C109.051498,27.7759532 104.83539,31.1428236 104.793735,31.1756424 L103.723131,32.0175961 L113.947932,41.7734141 L114.724297,41.3941493 C116.896444,40.3330106 118.566645,39.0183728 119.688733,37.4864389 C121.811007,34.5891831 121.418312,30.5104533 118.775238,27.9989159 L118.216088,27.4676775 C117.386869,26.5567022 117.027772,25.5668675 117.118574,24.4430033 C117.394846,21.0226942 121.610873,17.6559024 121.652527,17.623005 L121.652527,17.623005 Z" id="ic_splash_settle_logo_symbol" fill="#FFFFFE"></path>
            </g>
        </g>
    </g>
</svg>